{
  "accessors": [
    {
      "bufferView": 3,
      "componentType": 5126,
      "count": 3263,
      "max": [
        0.43062010407447815,
        0.956750750541687,
        0.5203464031219482
      ],
      "min": [
        -0.430620014667511,
        -3.6844642181677045e-06,
        -0.49337878823280334
      ],
      "type": "VEC3"
    },
    {
      "bufferView": 3,
      "byteOffset": 39156,
      "componentType": 5126,
      "count": 3263,
      "max": [
        0.9988294839859009,
        0.9999992847442627,
        0.9999516010284424
      ],
      "min": [
        -0.9988294839859009,
        -1.0,
        -0.9999701380729675
      ],
      "type": "VEC3"
    },
    {
      "bufferView": 2,
      "componentType": 5126,
      "count": 3263,
      "max": [
        0.9981404542922974,
        0.9984922409057617
      ],
      "min": [
        0.0014979052357375622,
        0.0014995711389929056
      ],
      "type": "VEC2"
    },
    {
      "bufferView": 1,
      "componentType": 5125,
      "count": 16188,
      "type": "SCALAR"
    },
    {
      "bufferView": 5,
      "componentType": 5126,
      "count": 9,
      "max": [
        2.943784236907959,
        1.8061373233795166,
        0.9062951803207397,
        0.0,
        2.01918363571167,
        2.94378662109375,
        2.189955949783325,
        0.0,
        1.9161311388015747,
        1.394887089729309,
        2.94378662109375,
        0.0,
        0.7377551794052124,
        0.4018118977546692,
        0.00867224670946598,
        1.0
      ],
      "min": [
        -2.9437851905822754,
        -1.8061379194259644,
        0.0,
        0.0,
        -0.641819179058075,
        -2.797426462173462,
        -1.1999611854553223,
        0.0,
        -0.07991288602352142,
        -1.1999620199203491,
        1.0,
        0.0,
        -1.4348233938217163,
        -1.4363598823547363,
        -1.2840147018432617,
        1.0
      ],
      "type": "MAT4"
    },
    {
      "bufferView": 0,
      "componentType": 5123,
      "count": 3263,
      "type": "VEC4"
    },
    {
      "bufferView": 4,
      "componentType": 5126,
      "count": 3263,
      "max": [
        1.0,
        0.5,
        0.0,
        0.0
      ],
      "min": [
        0.5,
        0.0,
        0.0,
        0.0
      ],
      "type": "VEC4"
    },
    {
      "bufferView": 6,
      "componentType": 5126,
      "count": 30,
      "max": [
        1.0
      ],
      "min": [
        0.03333333507180214
      ],
      "type": "SCALAR"
    },
    {
      "bufferView": 8,
      "componentType": 5126,
      "count": 30,
      "max": [
        0.07798903435468674,
        0.23499028384685516,
        0.91387939453125,
        0.3610125780105591
      ],
      "min": [
        0.06843727827072144,
        0.23199526965618134,
        0.8998698592185974,
        0.3239140510559082
      ],
      "type": "VEC4"
    },
    {
      "bufferView": 6,
      "byteOffset": 120,
      "componentType": 5126,
      "count": 31,
      "max": [
        1.0
      ],
      "min": [
        0.0
      ],
      "type": "SCALAR"
    },
    {
      "bufferView": 8,
      "byteOffset": 480,
      "componentType": 5126,
      "count": 31,
      "max": [
        -0.35943087935447693,
        -0.001813374925404787,
        0.03486848622560501,
        0.9325183033943176
      ],
      "min": [
        -0.5064066052436829,
        -0.007464064750820398,
        0.034108467400074005,
        0.861587643623352
      ],
      "type": "VEC4"
    },
    {
      "bufferView": 6,
      "byteOffset": 244,
      "componentType": 5126,
      "count": 31,
      "max": [
        1.0
      ],
      "min": [
        0.0
      ],
      "type": "SCALAR"
    },
    {
      "bufferView": 8,
      "byteOffset": 976,
      "componentType": 5126,
      "count": 31,
      "max": [
        0.005493112839758396,
        0.26191163063049316,
        0.9869470000267029,
        0.03563948720693588
      ],
      "min": [
        0.0019809517543762922,
        0.1572149097919464,
        0.9644315242767334,
        0.03448100760579109
      ],
      "type": "VEC4"
    },
    {
      "bufferView": 6,
      "byteOffset": 368,
      "componentType": 5126,
      "count": 31,
      "max": [
        1.0
      ],
      "min": [
        0.0
      ],
      "type": "SCALAR"
    },
    {
      "bufferView": 8,
      "byteOffset": 1472,
      "componentType": 5126,
      "count": 31,
      "max": [
        -0.3599861264228821,
        4.448697552561498e-07,
        3.800845718160417e-07,
        0.932957649230957
      ],
      "min": [
        -0.5070258975028992,
        3.881863790411444e-07,
        3.1183944315671397e-07,
        0.861930787563324
      ],
      "type": "VEC4"
    },
    {
      "bufferView": 6,
      "byteOffset": 492,
      "componentType": 5126,
      "count": 31,
      "max": [
        1.0
      ],
      "min": [
        0.0
      ],
      "type": "SCALAR"
    },
    {
      "bufferView": 8,
      "byteOffset": 1968,
      "componentType": 5126,
      "count": 31,
      "max": [
        6.668864784842299e-07,
        0.26242154836654663,
        0.9874922633171082,
        9.165524517129597e-08
      ],
      "min": [
        6.608735247937148e-07,
        0.1576676070690155,
        0.9649533033370972,
        2.041735314151083e-08
      ],
      "type": "VEC4"
    },
    {
      "bufferView": 6,
      "byteOffset": 616,
      "componentType": 5126,
      "count": 29,
      "max": [
        0.9666666388511658
      ],
      "min": [
        0.03333333507180214
      ],
      "type": "SCALAR"
    },
    {
      "bufferView": 8,
      "byteOffset": 2464,
      "componentType": 5126,
      "count": 29,
      "max": [
        0.30258408188819885,
        0.35424351692199707,
        0.8735987544059753,
        -0.18271824717521667
      ],
      "min": [
        0.2791966497898102,
        0.3344878554344177,
        0.8591914772987366,
        -0.2415589988231659
      ],
      "type": "VEC4"
    },
    {
      "bufferView": 6,
      "byteOffset": 732,
      "componentType": 5126,
      "count": 31,
      "max": [
        1.0
      ],
      "min": [
        0.0
      ],
      "type": "SCALAR"
    },
    {
      "bufferView": 8,
      "byteOffset": 2928,
      "componentType": 5126,
      "count": 31,
      "max": [
        0.01835469901561737,
        0.0,
        0.01969822123646736,
        1.0
      ],
      "min": [
        0.0,
        -0.004813391249626875,
        0.0,
        0.9996258616447449
      ],
      "type": "VEC4"
    },
    {
      "bufferView": 6,
      "byteOffset": 856,
      "componentType": 5126,
      "count": 28,
      "max": [
        0.9666666388511658
      ],
      "min": [
        0.03333333507180214
      ],
      "type": "SCALAR"
    },
    {
      "bufferView": 7,
      "componentType": 5126,
      "count": 28,
      "max": [
        0.0,
        0.0,
        0.43591395020484924
      ],
      "min": [
        0.0,
        -1.3234889800848443e-23,
        0.40180572867393494
      ],
      "type": "VEC3"
    },
    {
      "bufferView": 6,
      "byteOffset": 968,
      "componentType": 5126,
      "count": 31,
      "max": [
        1.0
      ],
      "min": [
        0.0
      ],
      "type": "SCALAR"
    },
    {
      "bufferView": 8,
      "byteOffset": 3424,
      "componentType": 5126,
      "count": 31,
      "max": [
        0.08141057193279266,
        0.320109486579895,
        0.9513459801673889,
        0.4016430377960205
      ],
      "min": [
        0.007074988447129726,
        0.06755726784467697,
        0.8563370704650879,
        0.30054423213005066
      ],
      "type": "VEC4"
    },
    {
      "bufferView": 6,
      "byteOffset": 1092,
      "componentType": 5126,
      "count": 31,
      "max": [
        1.0
      ],
      "min": [
        0.0
      ],
      "type": "SCALAR"
    },
    {
      "bufferView": 8,
      "byteOffset": 3920,
      "componentType": 5126,
      "count": 31,
      "max": [
        -0.15667685866355896,
        0.005511388182640076,
        0.0349155031144619,
        0.9870325326919556
      ],
      "min": [
        -0.5563510656356812,
        -0.009463177993893623,
        0.03360874950885773,
        0.8302134275436401
      ],
      "type": "VEC4"
    },
    {
      "bufferView": 6,
      "byteOffset": 1216,
      "componentType": 5126,
      "count": 31,
      "max": [
        1.0
      ],
      "min": [
        0.0
      ],
      "type": "SCALAR"
    },
    {
      "bufferView": 8,
      "byteOffset": 4416,
      "componentType": 5126,
      "count": 31,
      "max": [
        0.01107036042958498,
        0.3168521821498871,
        0.9993852376937866,
        0.03491564095020294
      ],
      "min": [
        -0.0014955169754102826,
        -0.04281977564096451,
        0.9478320479393005,
        0.033114366233348846
      ],
      "type": "VEC4"
    },
    {
      "bufferView": 6,
      "byteOffset": 1340,
      "componentType": 5126,
      "count": 31,
      "max": [
        1.0
      ],
      "min": [
        0.0
      ],
      "type": "SCALAR"
    },
    {
      "bufferView": 8,
      "byteOffset": 4912,
      "componentType": 5126,
      "count": 31,
      "max": [
        -0.21949158608913422,
        4.857374733546749e-07,
        3.4353649880358716e-07,
        0.9756143689155579
      ],
      "min": [
        -0.427246630191803,
        4.208748123346595e-07,
        2.4333522219421866e-07,
        0.9041351079940796
      ],
      "type": "VEC4"
    },
    {
      "bufferView": 6,
      "byteOffset": 1464,
      "componentType": 5126,
      "count": 31,
      "max": [
        1.0
      ],
      "min": [
        0.0
      ],
      "type": "SCALAR"
    },
    {
      "bufferView": 8,
      "byteOffset": 5408,
      "componentType": 5126,
      "count": 31,
      "max": [
        6.671976393590739e-07,
        0.34933069348335266,
        0.9998607039451599,
        2.7269254587736214e-07
      ],
      "min": [
        6.089279622756294e-07,
        -0.12458112835884094,
        0.936999499797821,
        -4.048707324955103e-08
      ],
      "type": "VEC4"
    },
    {
      "bufferView": 6,
      "byteOffset": 1588,
      "componentType": 5126,
      "count": 31,
      "max": [
        1.0
      ],
      "min": [
        0.0
      ],
      "type": "SCALAR"
    },
    {
      "bufferView": 8,
      "byteOffset": 5904,
      "componentType": 5126,
      "count": 31,
      "max": [
        0.31270167231559753,
        0.4824092388153076,
        0.8742460608482361,
        -0.19604328274726868
      ],
      "min": [
        0.2239300161600113,
        0.2553286552429199,
        0.7943966388702393,
        -0.3498682677745819
      ],
      "type": "VEC4"
    },
    {
      "bufferView": 6,
      "byteOffset": 1712,
      "componentType": 5126,
      "count": 31,
      "max": [
        1.0
      ],
      "min": [
        0.0
      ],
      "type": "SCALAR"
    },
    {
      "bufferView": 8,
      "byteOffset": 6400,
      "componentType": 5126,
      "count": 31,
      "max": [
        0.07685244828462601,
        0.0012009599013254046,
        0.023964785039424896,
        1.0
      ],
      "min": [
        0.0,
        -0.0035895861219614744,
        -0.04651834815740585,
        0.9959502220153809
      ],
      "type": "VEC4"
    },
    {
      "bufferView": 6,
      "byteOffset": 1836,
      "componentType": 5126,
      "count": 31,
      "max": [
        1.0
      ],
      "min": [
        0.0
      ],
      "type": "SCALAR"
    },
    {
      "bufferView": 7,
      "byteOffset": 336,
      "componentType": 5126,
      "count": 31,
      "max": [
        0.0,
        0.0,
        0.5106635689735413
      ],
      "min": [
        0.0,
        -2.6469779601696886e-23,
        0.43635988235473633
      ],
      "type": "VEC3"
    }
  ],
  "animations": [
    {
      "channels": [
        {
          "sampler": 0,
          "target": {
            "node": 11,
            "path": "rotation"
          }
        },
        {
          "sampler": 1,
          "target": {
            "node": 13,
            "path": "rotation"
          }
        },
        {
          "sampler": 2,
          "target": {
            "node": 12,
            "path": "rotation"
          }
        },
        {
          "sampler": 3,
          "target": {
            "node": 15,
            "path": "rotation"
          }
        },
        {
          "sampler": 4,
          "target": {
            "node": 14,
            "path": "rotation"
          }
        },
        {
          "sampler": 5,
          "target": {
            "node": 16,
            "path": "rotation"
          }
        },
        {
          "sampler": 6,
          "target": {
            "node": 17,
            "path": "rotation"
          }
        },
        {
          "sampler": 7,
          "target": {
            "node": 10,
            "path": "translation"
          }
        }
      ],
      "name": "idle",
      "samplers": [
        {
          "input": 7,
          "interpolation": "LINEAR",
          "output": 8
        },
        {
          "input": 9,
          "interpolation": "LINEAR",
          "output": 10
        },
        {
          "input": 11,
          "interpolation": "LINEAR",
          "output": 12
        },
        {
          "input": 13,
          "interpolation": "LINEAR",
          "output": 14
        },
        {
          "input": 15,
          "interpolation": "LINEAR",
          "output": 16
        },
        {
          "input": 17,
          "interpolation": "LINEAR",
          "output": 18
        },
        {
          "input": 19,
          "interpolation": "LINEAR",
          "output": 20
        },
        {
          "input": 21,
          "interpolation": "LINEAR",
          "output": 22
        }
      ]
    },
    {
      "channels": [
        {
          "sampler": 0,
          "target": {
            "node": 11,
            "path": "rotation"
          }
        },
        {
          "sampler": 1,
          "target": {
            "node": 13,
            "path": "rotation"
          }
        },
        {
          "sampler": 2,
          "target": {
            "node": 12,
            "path": "rotation"
          }
        },
        {
          "sampler": 3,
          "target": {
            "node": 15,
            "path": "rotation"
          }
        },
        {
          "sampler": 4,
          "target": {
            "node": 14,
            "path": "rotation"
          }
        },
        {
          "sampler": 5,
          "target": {
            "node": 16,
            "path": "rotation"
          }
        },
        {
          "sampler": 6,
          "target": {
            "node": 17,
            "path": "rotation"
          }
        },
        {
          "sampler": 7,
          "target": {
            "node": 10,
            "path": "translation"
          }
        }
      ],
      "name": "walk",
      "samplers": [
        {
          "input": 23,
          "interpolation": "LINEAR",
          "output": 24
        },
        {
          "input": 25,
          "interpolation": "LINEAR",
          "output": 26
        },
        {
          "input": 27,
          "interpolation": "LINEAR",
          "output": 28
        },
        {
          "input": 29,
          "interpolation": "LINEAR",
          "output": 30
        },
        {
          "input": 31,
          "interpolation": "LINEAR",
          "output": 32
        },
        {
          "input": 33,
          "interpolation": "LINEAR",
          "output": 34
        },
        {
          "input": 35,
          "interpolation": "LINEAR",
          "output": 36
        },
        {
          "input": 37,
          "interpolation": "LINEAR",
          "output": 38
        }
      ]
    }
  ],
  "asset": {
    "extras": {
      "author": "leha_pu (https://sketchfab.com/leha_pu)",
      "license": "CC-BY-4.0 (http://creativecommons.org/licenses/by/4.0/)",
      "source": "https://sketchfab.com/3d-models/dinosaur-5fef8ade08544415a8543ee7e76a631e",
      "title": "Dinosaur"
    },
    "generator": "Sketchfab-14.14.0",
    "version": "2.0"
  },
  "bufferViews": [
    {
      "buffer": 0,
      "byteLength": 26104,
      "byteStride": 8,
      "name": "shortBufferViews",
      "target": 34962
    },
    {
      "buffer": 0,
      "byteLength": 64752,
      "byteOffset": 26104,
      "name": "floatBufferViews",
      "target": 34963
    },
    {
      "buffer": 0,
      "byteLength": 26104,
      "byteOffset": 90856,
      "byteStride": 8,
      "name": "floatBufferViews",
      "target": 34962
    },
    {
      "buffer": 0,
      "byteLength": 78312,
      "byteOffset": 116960,
      "byteStride": 12,
      "name": "floatBufferViews",
      "target": 34962
    },
    {
      "buffer": 0,
      "byteLength": 52208,
      "byteOffset": 195272,
      "byteStride": 16,
      "name": "floatBufferViews",
      "target": 34962
    },
    {
      "buffer": 0,
      "byteLength": 576,
      "byteOffset": 247480,
      "name": "floatBufferViews"
    },
    {
      "buffer": 0,
      "byteLength": 1960,
      "byteOffset": 248056,
      "name": "floatBufferViews"
    },
    {
      "buffer": 0,
      "byteLength": 708,
      "byteOffset": 250016,
      "byteStride": 12,
      "name": "floatBufferViews"
    },
    {
      "buffer": 0,
      "byteLength": 6896,
      "byteOffset": 250724,
      "byteStride": 16,
      "name": "floatBufferViews"
    }
  ],
  "buffers": [
    {
      "byteLength": 257620,
      "uri": "scene.bin"
    }
  ],
  "images": [
    {
      "uri": "textures/Material.003_baseColor.png"
    }
  ],
  "materials": [
    {
      "doubleSided": true,
      "name": "Material.003",
      "pbrMetallicRoughness": {
        "baseColorTexture": {
          "index": 0
        },
        "metallicFactor": 0.0
      }
    }
  ],
  "meshes": [
    {
      "name": "Dino_Material.003_0",
      "primitives": [
        {
          "attributes": {
            "JOINTS_0": 5,
            "NORMAL": 1,
            "POSITION": 0,
            "TEXCOORD_0": 2,
            "WEIGHTS_0": 6
          },
          "indices": 3,
          "material": 0,
          "mode": 4
        }
      ]
    }
  ],
  "nodes": [
    {
      "children": [
        1
      ],
      "matrix": [
        1.0,
        0.0,
        0.0,
        0.0,
        0.0,
        2.220446049250313e-16,
        -1.0,
        0.0,
        0.0,
        1.0,
        2.220446049250313e-16,
        0.0,
        0.0,
        0.0,
        0.0,
        1.0
      ],
      "name": "Sketchfab_model"
    },
    {
      "children": [
        2
      ],
      "matrix": [
        0.009999999776482582,
        0.0,
        0.0,
        0.0,
        0.0,
        0.0,
        0.009999999776482582,
        0.0,
        0.0,
        -0.009999999776482582,
        0.0,
        0.0,
        0.0,
        0.0,
        0.0,
        1.0
      ],
      "name": "Dino Unity.fbx"
    },
    {
      "children": [
        3
      ],
      "name": "Object_2"
    },
    {
      "children": [
        4,
        5
      ],
      "name": "RootNode"
    },
    {
      "name": "Dino",
      "rotation": [
        -0.7071068286895752,
        0.0,
        0.0,
        0.7071067094802856
      ],
      "scale": [
        294.3790283203125,
        294.378662109375,
        294.378662109375
      ]
    },
    {
      "children": [
        6
      ],
      "name": "Armature",
      "rotation": [
        -0.7071068286895752,
        0.0,
        0.0,
        0.7071067094802856
      ],
      "scale": [
        100.00020599365234,
        100.0,
        100.0
      ]
    },
    {
      "children": [
        7,
        9,
        8
      ],
      "name": "Object_6"
    },
    {
      "children": [
        10
      ],
      "name": "_rootJoint"
    },
    {
      "matrix": [
        294.37903009166257,
        0.0,
        0.0,
        0.0,
        0.0,
        1.8025494314476317e-14,
        -294.378662109375,
        0.0,
        0.0,
        294.378662109375,
        1.8025494314476317e-14,
        0.0,
        0.0,
        1.0728836059570313e-06,
        0.0,
        1.0
      ],
      "name": "Object_8"
    },
    {
      "mesh": 0,
      "name": "Object_9",
      "skin": 0
    },
    {
      "children": [
        11,
        12,
        14,
        16,
        17
      ],
      "name": "body_00",
      "rotation": [
        0.7071068286895752,
        0.0,
        0.0,
        0.7071067094802856
      ],
      "translation": [
        0.0,
        -1.3234889800848443e-23,
        0.43635988235473633
      ]
    },
    {
      "name": "right hand_01",
      "rotation": [
        0.07798904925584793,
        0.23199529945850372,
        0.899869978427887,
        0.36101263761520386
      ],
      "scale": [
        0.9999998211860657,
        0.9999999403953552,
        0.9999998211860657
      ],
      "translation": [
        -0.7962102890014648,
        0.818392276763916,
        0.17733247578144073
      ]
    },
    {
      "children": [
        13
      ],
      "name": "leg right top_02",
      "rotation": [
        0.005493112839758396,
        0.1572149097919464,
        0.9869470000267029,
        0.03448100760579109
      ],
      "scale": [
        0.9999998211860657,
        0.9999995827674866,
        0.9999968409538269
      ],
      "translation": [
        -0.47189268469810486,
        -0.01352536678314209,
        -6.269871022368534e-08
      ]
    },
    {
      "name": "leg right bottom_03",
      "rotation": [
        -0.35943087935447693,
        -0.0018133751582354307,
        0.03486848622560501,
        0.9325183033943176
      ],
      "scale": [
        1.0,
        0.9999999403953552,
        1.0
      ],
      "translation": [
        -2.5092031563644923e-08,
        0.24422580003738403,
        -5.587935447692871e-09
      ]
    },
    {
      "children": [
        15
      ],
      "name": "leg left top_04",
      "rotation": [
        6.608735247937148e-07,
        0.1576676219701767,
        0.9874922633171082,
        9.165523806586862e-08
      ],
      "scale": [
        1.0,
        1.000000238418579,
        1.0000027418136597
      ],
      "translation": [
        0.4994747042655945,
        -0.01352536678314209,
        -6.269871022368534e-08
      ]
    },
    {
      "name": "leg left bottom_05",
      "rotation": [
        -0.3599861264228821,
        4.448697552561498e-07,
        3.1183944315671397e-07,
        0.932957649230957
      ],
      "scale": [
        1.0,
        0.9999999403953552,
        0.9999999403953552
      ],
      "translation": [
        -3.1776252740201016e-08,
        0.24368782341480255,
        -7.165851911850041e-09
      ]
    },
    {
      "name": "left hand_06",
      "rotation": [
        0.27901598811149597,
        0.3543858528137207,
        0.8590682148933411,
        -0.24199707806110382
      ],
      "scale": [
        0.9999997615814209,
        0.9999997615814209,
        0.9999998211860657
      ],
      "translation": [
        0.797075629234314,
        0.818392276763916,
        0.17733246088027954
      ]
    },
    {
      "name": "head_07",
      "translation": [
        0.0,
        1.0,
        0.0
      ]
    }
  ],
  "samplers": [
    {
      "magFilter": 9729,
      "minFilter": 9987,
      "wrapS": 10497,
      "wrapT": 10497
    }
  ],
  "scene": 0,
  "scenes": [
    {
      "name": "Sketchfab_Scene",
      "nodes": [
        0
      ]
    }
  ],
  "skins": [
    {
      "inverseBindMatrices": 4,
      "joints": [
        7,
        10,
        11,
        12,
        13,
        14,
        15,
        16,
        17
      ],
      "skeleton": 7
    }
  ],
  "textures": [
    {
      "sampler": 0,
      "source": 0
    }
  ]
}
