{
  "accessors": [
    {
      "bufferView": 2,
      "componentType": 5126,
      "count": 2260,
      "max": [
        3.339169979095459,
        2.154670000076294,
        0.023639999330043793
      ],
      "min": [
        -3.3976399898529053,
        -2.301110029220581,
        -0.5360100269317627
      ],
      "type": "VEC3"
    },
    {
      "bufferView": 2,
      "byteOffset": 27120,
      "componentType": 5126,
      "count": 2260,
      "max": [
        0.041900891810655594,
        0.0,
        0.9952588081359863
      ],
      "min": [
        -0.07810071110725403,
        -0.1964813470840454,
        -1.0
      ],
      "type": "VEC3"
    },
    {
      "bufferView": 1,
      "componentType": 5126,
      "count": 2260,
      "max": [
        1.0489000082015991,
        1.0847400426864624
      ],
      "min": [
        -0.05333999916911125,
        -0.39739999175071716
      ],
      "type": "VEC2"
    },
    {
      "bufferView": 0,
      "componentType": 5125,
      "count": 10944,
      "type": "SCALAR"
    },
    {
      "bufferView": 2,
      "byteOffset": 54240,
      "componentType": 5126,
      "count": 17794,
      "max": [
        3.339169979095459,
        2.353369951248169,
        0.05617000162601471
      ],
      "min": [
        -3.3976399898529053,
        -2.301110029220581,
        -0.5360100269317627
      ],
      "type": "VEC3"
    },
    {
      "bufferView": 2,
      "byteOffset": 267768,
      "componentType": 5126,
      "count": 17794,
      "max": [
        1.0,
        1.0,
        1.0
      ],
      "min": [
        -1.0,
        -1.0,
        -1.0
      ],
      "type": "VEC3"
    },
    {
      "bufferView": 1,
      "byteOffset": 18080,
      "componentType": 5126,
      "count": 17794,
      "max": [
        1.049780011177063,
        1.2205400466918945
      ],
      "min": [
        -0.05471000075340271,
        -0.4511300027370453
      ],
      "type": "VEC2"
    },
    {
      "bufferView": 0,
      "byteOffset": 43776,
      "componentType": 5125,
      "count": 93840,
      "type": "SCALAR"
    },
    {
      "bufferView": 2,
      "byteOffset": 481296,
      "componentType": 5126,
      "count": 8,
      "max": [
        3.339169979095459,
        0.9168199896812439,
        -0.28273001313209534
      ],
      "min": [
        3.1669299602508545,
        0.6183000206947327,
        -0.32826998829841614
      ],
      "type": "VEC3"
    },
    {
      "bufferView": 2,
      "byteOffset": 481392,
      "componentType": 5126,
      "count": 8,
      "max": [
        0.5774601101875305,
        0.7077615261077881,
        0.707166850566864
      ],
      "min": [
        0.0,
        -0.7070468068122864,
        -0.7077315449714661
      ],
      "type": "VEC3"
    },
    {
      "bufferView": 1,
      "byteOffset": 160432,
      "componentType": 5126,
      "count": 8,
      "max": [
        0.31266000866889954,
        1.212049961090088
      ],
      "min": [
        0.30726000666618347,
        1.2099000215530396
      ],
      "type": "VEC2"
    },
    {
      "bufferView": 0,
      "byteOffset": 419136,
      "componentType": 5125,
      "count": 30,
      "type": "SCALAR"
    },
    {
      "bufferView": 2,
      "byteOffset": 481488,
      "componentType": 5126,
      "count": 20,
      "max": [
        3.339169979095459,
        0.5184999704360962,
        -0.28349000215530396
      ],
      "min": [
        3.0148000717163086,
        -0.9335700273513794,
        -0.3211599886417389
      ],
      "type": "VEC3"
    },
    {
      "bufferView": 2,
      "byteOffset": 481728,
      "componentType": 5126,
      "count": 20,
      "max": [
        0.7071068286895752,
        0.7287989258766174,
        0.9999999403953552
      ],
      "min": [
        0.0,
        -0.7565450668334961,
        -1.0
      ],
      "type": "VEC3"
    },
    {
      "bufferView": 1,
      "byteOffset": 160496,
      "componentType": 5126,
      "count": 20,
      "max": [
        0.30539000034332275,
        1.2114700078964233
      ],
      "min": [
        0.2779200077056885,
        1.2055000066757202
      ],
      "type": "VEC2"
    },
    {
      "bufferView": 0,
      "byteOffset": 419256,
      "componentType": 5125,
      "count": 84,
      "type": "SCALAR"
    },
    {
      "bufferView": 2,
      "byteOffset": 481968,
      "componentType": 5126,
      "count": 8,
      "max": [
        2.941770076751709,
        1.011970043182373,
        -0.0006600000197067857
      ],
      "min": [
        -2.907900094985962,
        -0.9880300164222717,
        -0.0006600000197067857
      ],
      "type": "VEC3"
    },
    {
      "bufferView": 2,
      "byteOffset": 482064,
      "componentType": 5126,
      "count": 8,
      "max": [
        0.0,
        -0.0,
        1.0
      ],
      "min": [
        0.0,
        -0.0,
        1.0
      ],
      "type": "VEC3"
    },
    {
      "bufferView": 1,
      "byteOffset": 160656,
      "componentType": 5126,
      "count": 8,
      "max": [
        12.035860061645508,
        1.2607300281524658
      ],
      "min": [
        -11.531590461730957,
        -0.7564600110054016
      ],
      "type": "VEC2"
    },
    {
      "bufferView": 0,
      "byteOffset": 419592,
      "componentType": 5125,
      "count": 12,
      "type": "SCALAR"
    },
    {
      "bufferView": 2,
      "byteOffset": 482160,
      "componentType": 5126,
      "count": 8,
      "max": [
        2.941770076751709,
        1.011970043182373,
        -0.0006600000197067857
      ],
      "min": [
        -2.907900094985962,
        -0.9880300164222717,
        -0.0006600000197067857
      ],
      "type": "VEC3"
    },
    {
      "bufferView": 2,
      "byteOffset": 482256,
      "componentType": 5126,
      "count": 8,
      "max": [
        0.0,
        -0.0,
        1.0
      ],
      "min": [
        0.0,
        -0.0,
        1.0
      ],
      "type": "VEC3"
    },
    {
      "bufferView": 1,
      "byteOffset": 160720,
      "componentType": 5126,
      "count": 8,
      "max": [
        12.035860061645508,
        1.2607300281524658
      ],
      "min": [
        -11.531590461730957,
        -0.7564600110054016
      ],
      "type": "VEC2"
    },
    {
      "bufferView": 0,
      "byteOffset": 419640,
      "componentType": 5125,
      "count": 12,
      "type": "SCALAR"
    },
    {
      "bufferView": 2,
      "byteOffset": 482352,
      "componentType": 5126,
      "count": 1851,
      "max": [
        1.5506399869918823,
        1.1418999433517456,
        0.048900000751018524
      ],
      "min": [
        -1.5506399869918823,
        -1.2714200019836426,
        -3.4012300968170166
      ],
      "type": "VEC3"
    },
    {
      "bufferView": 2,
      "byteOffset": 504564,
      "componentType": 5126,
      "count": 1851,
      "max": [
        0.999883234500885,
        0.9999979138374329,
        0.9999144077301025
      ],
      "min": [
        -0.999883234500885,
        -1.0,
        -0.9999999403953552
      ],
      "type": "VEC3"
    },
    {
      "bufferView": 0,
      "byteOffset": 419688,
      "componentType": 5125,
      "count": 9216,
      "type": "SCALAR"
    },
    {
      "bufferView": 2,
      "byteOffset": 526776,
      "componentType": 5126,
      "count": 3333,
      "max": [
        3.132930040359497,
        1.4547100067138672,
        -0.5360100269317627
      ],
      "min": [
        -3.1814301013946533,
        -2.0472300052642822,
        -0.5360100269317627
      ],
      "type": "VEC3"
    },
    {
      "bufferView": 2,
      "byteOffset": 566772,
      "componentType": 5126,
      "count": 3333,
      "max": [
        0.0,
        0.0,
        -1.0
      ],
      "min": [
        0.0,
        0.0,
        -1.0
      ],
      "type": "VEC3"
    },
    {
      "bufferView": 1,
      "byteOffset": 160784,
      "componentType": 5126,
      "count": 3333,
      "max": [
        1.0032800436019897,
        0.9998300075531006
      ],
      "min": [
        -0.004259999841451645,
        0.0066999997943639755
      ],
      "type": "VEC2"
    },
    {
      "bufferView": 0,
      "byteOffset": 456552,
      "componentType": 5125,
      "count": 19200,
      "type": "SCALAR"
    },
    {
      "bufferView": 2,
      "byteOffset": 606768,
      "componentType": 5126,
      "count": 452,
      "max": [
        1.0007599592208862,
        2.032979965209961,
        8.587329864501953
      ],
      "min": [
        -1.0007599592208862,
        -1.8493200540542603,
        -26.525720596313477
      ],
      "type": "VEC3"
    },
    {
      "bufferView": 2,
      "byteOffset": 612192,
      "componentType": 5126,
      "count": 452,
      "max": [
        1.0,
        0.9999998211860657,
        0.9981669783592224
      ],
      "min": [
        -1.0,
        -0.9999998211860657,
        -0.9981669783592224
      ],
      "type": "VEC3"
    },
    {
      "bufferView": 1,
      "byteOffset": 187448,
      "componentType": 5126,
      "count": 452,
      "max": [
        1.0001399517059326,
        0.9801099896430969
      ],
      "min": [
        0.0028899998869746923,
        -0.006539999973028898
      ],
      "type": "VEC2"
    },
    {
      "bufferView": 0,
      "byteOffset": 533352,
      "componentType": 5125,
      "count": 1656,
      "type": "SCALAR"
    }
  ],
  "asset": {
    "extras": {
      "author": "Davide Specchi (https://sketchfab.com/Davide.Specchi)",
      "license": "CC-BY-4.0 (http://creativecommons.org/licenses/by/4.0/)",
      "source": "https://sketchfab.com/3d-models/apple-desktop-09e39508a9a34d4e8f9ffbbf7189aaa4",
      "title": "Apple Desktop"
    },
    "generator": "Sketchfab-12.67.0",
    "version": "2.0"
  },
  "bufferViews": [
    {
      "buffer": 0,
      "byteLength": 539976,
      "name": "floatBufferViews",
      "target": 34963
    },
    {
      "buffer": 0,
      "byteLength": 191064,
      "byteOffset": 539976,
      "byteStride": 8,
      "name": "floatBufferViews",
      "target": 34962
    },
    {
      "buffer": 0,
      "byteLength": 617616,
      "byteOffset": 731040,
      "byteStride": 12,
      "name": "floatBufferViews",
      "target": 34962
    }
  ],
  "buffers": [
    {
      "byteLength": 1348656,
      "uri": "scene.bin"
    }
  ],
  "images": [
    {
      "uri": "textures/Material.001_baseColor.jpeg"
    }
  ],
  "materials": [
    {
      "doubleSided": true,
      "name": "Material.006",
      "pbrMetallicRoughness": {
        "baseColorFactor": [
          0.6912592433859023,
          0.6912592433859023,
          0.6912592433859023,
          1.0
        ],
        "metallicFactor": 0.0,
        "roughnessFactor": 0.7456173780487805
      }
    },
    {
      "doubleSided": true,
      "name": "Material.001",
      "pbrMetallicRoughness": {
        "baseColorTexture": {
          "index": 0
        },
        "metallicFactor": 0.0,
        "roughnessFactor": 0.0
      }
    },
    {
      "doubleSided": true,
      "name": "Material.003",
      "pbrMetallicRoughness": {
        "baseColorFactor": [
          0.3931056261,
          0.3931056261,
          0.3931056261,
          1.0
        ],
        "metallicFactor": 0.0,
        "roughnessFactor": 0.6
      }
    },
    {
      "doubleSided": true,
      "name": "Material.002",
      "pbrMetallicRoughness": {
        "baseColorFactor": [
          0.0042412868,
          0.0042412868,
          0.0042412868,
          1.0
        ],
        "metallicFactor": 0.0,
        "roughnessFactor": 0.6
      }
    },
    {
      "doubleSided": true,
      "name": "Material.000",
      "pbrMetallicRoughness": {
        "baseColorFactor": [
          0.603805244,
          0.603805244,
          0.603805244,
          1.0
        ],
        "metallicFactor": 0.0,
        "roughnessFactor": 0.6
      }
    },
    {
      "doubleSided": true,
      "name": "Lamp.001",
      "pbrMetallicRoughness": {
        "baseColorFactor": [
          0.1375792176,
          0.1375792176,
          0.1375792176,
          1.0
        ],
        "metallicFactor": 0.0,
        "roughnessFactor": 0.6
      }
    },
    {
      "doubleSided": true,
      "name": "Material",
      "pbrMetallicRoughness": {
        "baseColorFactor": [
          0.8000000119,
          0.8000000119,
          0.8000000119,
          1.0
        ],
        "metallicFactor": 0.0,
        "roughnessFactor": 0.6
      }
    }
  ],
  "meshes": [
    {
      "name": "Plane_0",
      "primitives": [
        {
          "attributes": {
            "NORMAL": 1,
            "POSITION": 0,
            "TEXCOORD_0": 2
          },
          "indices": 3,
          "material": 3,
          "mode": 4
        }
      ]
    },
    {
      "name": "Plane_1",
      "primitives": [
        {
          "attributes": {
            "NORMAL": 5,
            "POSITION": 4,
            "TEXCOORD_0": 6
          },
          "indices": 7,
          "material": 4,
          "mode": 4
        }
      ]
    },
    {
      "name": "Plane.004_0",
      "primitives": [
        {
          "attributes": {
            "NORMAL": 9,
            "POSITION": 8,
            "TEXCOORD_0": 10
          },
          "indices": 11,
          "material": 5,
          "mode": 4
        }
      ]
    },
    {
      "name": "Plane.003_0",
      "primitives": [
        {
          "attributes": {
            "NORMAL": 13,
            "POSITION": 12,
            "TEXCOORD_0": 14
          },
          "indices": 15,
          "material": 5,
          "mode": 4
        }
      ]
    },
    {
      "name": "Plane.002_0",
      "primitives": [
        {
          "attributes": {
            "NORMAL": 17,
            "POSITION": 16,
            "TEXCOORD_0": 18
          },
          "indices": 19,
          "material": 6,
          "mode": 4
        }
      ]
    },
    {
      "name": "Plane.001_0",
      "primitives": [
        {
          "attributes": {
            "NORMAL": 21,
            "POSITION": 20,
            "TEXCOORD_0": 22
          },
          "indices": 23,
          "material": 6,
          "mode": 4
        }
      ]
    },
    {
      "name": "Cube_0",
      "primitives": [
        {
          "attributes": {
            "NORMAL": 25,
            "POSITION": 24
          },
          "indices": 26,
          "material": 2,
          "mode": 4
        }
      ]
    },
    {
      "name": "Plane.005_0",
      "primitives": [
        {
          "attributes": {
            "NORMAL": 28,
            "POSITION": 27,
            "TEXCOORD_0": 29
          },
          "indices": 30,
          "material": 1,
          "mode": 4
        }
      ]
    },
    {
      "name": "Keyboard_0",
      "primitives": [
        {
          "attributes": {
            "NORMAL": 32,
            "POSITION": 31,
            "TEXCOORD_0": 33
          },
          "indices": 34,
          "material": 0,
          "mode": 4
        }
      ]
    }
  ],
  "nodes": [
    {
      "children": [
        1
      ],
      "matrix": [
        1.0,
        0.0,
        0.0,
        0.0,
        0.0,
        2.220446049250313e-16,
        -1.0,
        0.0,
        0.0,
        1.0,
        2.220446049250313e-16,
        0.0,
        0.0,
        0.0,
        0.0,
        1.0
      ],
      "name": "Sketchfab_model"
    },
    {
      "children": [
        2,
        4,
        15,
        17,
        19,
        21,
        23,
        25,
        27,
        29
      ],
      "name": "Root"
    },
    {
      "children": [
        3
      ],
      "matrix": [
        0.62656,
        0.77742,
        -0.05519000000000001,
        0.0,
        -0.5987100000000001,
        0.52545,
        0.6045200000000001,
        0.0,
        0.4989700000000001,
        -0.34573000000000004,
        0.7946700000000001,
        0.0,
        5.8983099999999995,
        -4.09141,
        8.99767,
        1.0
      ],
      "name": "Lamp"
    },
    {
      "name": "Lamp"
    },
    {
      "children": [
        5,
        6,
        7,
        9,
        11,
        13
      ],
      "matrix": [
        0.48040000000000005,
        0.0,
        0.0,
        0.0,
        0.0,
        0.0,
        -0.48040000000000005,
        0.0,
        -0.0,
        0.42556000000000005,
        0.0,
        0.0,
        -0.009840000000000003,
        0.09177000000000003,
        1.45711,
        1.0
      ],
      "name": "Plane"
    },
    {
      "mesh": 0,
      "name": "Plane_0"
    },
    {
      "mesh": 1,
      "name": "Plane_1"
    },
    {
      "children": [
        8
      ],
      "name": "Plane.004"
    },
    {
      "mesh": 2,
      "name": "Plane.004_0"
    },
    {
      "children": [
        10
      ],
      "name": "Plane.003"
    },
    {
      "mesh": 3,
      "name": "Plane.003_0"
    },
    {
      "children": [
        12
      ],
      "matrix": [
        1.07738,
        0.0,
        -0.0,
        0.0,
        0.0,
        0.0,
        0.11655000000000001,
        0.0,
        0.0,
        -0.92098,
        0.0,
        0.0,
        -0.029100000000000004,
        2.22867,
        -0.3843500000000001,
        1.0
      ],
      "name": "Plane.002"
    },
    {
      "mesh": 4,
      "name": "Plane.002_0"
    },
    {
      "children": [
        14
      ],
      "matrix": [
        1.07738,
        0.0,
        -0.0,
        0.0,
        0.0,
        0.0,
        0.11655000000000001,
        0.0,
        0.0,
        -0.92098,
        0.0,
        0.0,
        -0.029100000000000004,
        2.3312399999999993,
        -0.3843500000000001,
        1.0
      ],
      "name": "Plane.001"
    },
    {
      "mesh": 5,
      "name": "Plane.001_0"
    },
    {
      "children": [
        16
      ],
      "matrix": [
        -0.29086000000000006,
        0.9551700000000001,
        -0.05519000000000001,
        0.0,
        -0.7711,
        -0.19988000000000003,
        0.6045200000000001,
        0.0,
        0.5663900000000001,
        0.21839000000000003,
        0.7946700000000001,
        0.0,
        -3.62095,
        3.29028,
        8.447519999999999,
        1.0
      ],
      "name": "Lamp.002"
    },
    {
      "name": "Lamp.002"
    },
    {
      "children": [
        18
      ],
      "matrix": [
        -0.29086000000000006,
        0.9551700000000001,
        -0.05519000000000001,
        0.0,
        -0.7711,
        -0.19988000000000003,
        0.6045200000000001,
        0.0,
        0.5663900000000001,
        0.21839000000000003,
        0.7946700000000001,
        0.0,
        -2.2815000000000003,
        7.07571,
        -2.94175,
        1.0
      ],
      "name": "Lamp.003"
    },
    {
      "name": "Lamp.003"
    },
    {
      "children": [
        20
      ],
      "matrix": [
        -0.29086000000000006,
        0.9551700000000001,
        -0.05519000000000001,
        0.0,
        -0.7711,
        -0.19988000000000003,
        0.6045200000000001,
        0.0,
        0.5663900000000001,
        0.21839000000000003,
        0.7946700000000001,
        0.0,
        -7.91878,
        -4.13833,
        -3.69547,
        1.0
      ],
      "name": "Lamp.004"
    },
    {
      "name": "Lamp.004"
    },
    {
      "children": [
        22
      ],
      "matrix": [
        0.75516,
        0.37750000000000006,
        0.26112,
        0.0,
        -0.33854000000000006,
        0.11855000000000002,
        0.8076500000000001,
        0.0,
        0.3099800000000001,
        -0.7901900000000001,
        0.24592000000000003,
        0.0,
        4.838620000000001,
        -4.09141,
        3.32203,
        1.0
      ],
      "name": "Lamp.005"
    },
    {
      "name": "Lamp.005"
    },
    {
      "children": [
        24
      ],
      "matrix": [
        0.42556000000000005,
        0.0,
        0.0,
        0.0,
        0.0,
        0.42556000000000005,
        0.0,
        0.0,
        0.0,
        0.0,
        0.42556000000000005,
        0.0,
        -0.009840000000000003,
        0.09177000000000003,
        1.45711,
        1.0
      ],
      "name": "Cube"
    },
    {
      "mesh": 6,
      "name": "Cube_0"
    },
    {
      "children": [
        26
      ],
      "matrix": [
        0.48284000000000005,
        0.0,
        0.0,
        0.0,
        0.0,
        0.0,
        -0.47117000000000003,
        0.0,
        -0.0,
        0.4173800000000001,
        0.0,
        0.0,
        -0.009840000000000003,
        0.10250000000000001,
        1.45711,
        1.0
      ],
      "name": "Plane.005"
    },
    {
      "mesh": 7,
      "name": "Plane.005_0"
    },
    {
      "children": [
        28
      ],
      "matrix": [
        1.09452,
        0.09247000000000002,
        0.0,
        0.0,
        -0.018490000000000003,
        0.21880000000000002,
        0.04910000000000001,
        0.0,
        0.00010000000000000003,
        -0.0012200000000000004,
        0.005460000000000001,
        0.0,
        0.0,
        -1.30903,
        0.06667000000000002,
        1.0
      ],
      "name": "Keyboard"
    },
    {
      "mesh": 8,
      "name": "Keyboard_0"
    },
    {
      "children": [
        30
      ],
      "matrix": [
        -0.29086000000000006,
        0.9551700000000001,
        -0.05519000000000001,
        0.0,
        -0.7711,
        -0.19988000000000003,
        0.6045200000000001,
        0.0,
        0.5663900000000001,
        0.21839000000000003,
        0.7946700000000001,
        0.0,
        3.03471,
        2.42366,
        8.447519999999999,
        1.0
      ],
      "name": "Lamp.001"
    },
    {
      "name": "Lamp.001"
    }
  ],
  "samplers": [
    {
      "magFilter": 9729,
      "minFilter": 9987,
      "wrapS": 10497,
      "wrapT": 10497
    }
  ],
  "scene": 0,
  "scenes": [
    {
      "name": "Sketchfab_Scene",
      "nodes": [
        0
      ]
    }
  ],
  "textures": [
    {
      "sampler": 0,
      "source": 0
    }
  ]
}
