{
  "accessors": [
    {
      "bufferView": 1,
      "componentType": 5126,
      "count": 482,
      "max": [
        1.0,
        1.0,
        1.0
      ],
      "min": [
        -1.0,
        -1.0,
        -1.0
      ],
      "type": "VEC3"
    },
    {
      "bufferView": 1,
      "byteOffset": 5784,
      "componentType": 5126,
      "count": 482,
      "max": [
        1.0,
        1.0,
        1.0
      ],
      "min": [
        -1.0,
        -1.0,
        -1.0
      ],
      "type": "VEC3"
    },
    {
      "bufferView": 0,
      "componentType": 5125,
      "count": 2880,
      "type": "SCALAR"
    },
    {
      "bufferView": 1,
      "byteOffset": 11568,
      "componentType": 5126,
      "count": 576,
      "max": [
        1.25,
        1.25,
        0.25
      ],
      "min": [
        -1.25,
        -1.25,
        -0.25
      ],
      "type": "VEC3"
    },
    {
      "bufferView": 1,
      "byteOffset": 18480,
      "componentType": 5126,
      "count": 576,
      "max": [
        1.0,
        1.0,
        0.9999422430992126
      ],
      "min": [
        -1.0,
        -1.0,
        -0.9999422430992126
      ],
      "type": "VEC3"
    },
    {
      "bufferView": 0,
      "byteOffset": 11520,
      "componentType": 5125,
      "count": 3456,
      "type": "SCALAR"
    },
    {
      "bufferView": 1,
      "byteOffset": 25392,
      "componentType": 5126,
      "count": 576,
      "max": [
        1.25,
        1.25,
        0.25
      ],
      "min": [
        -1.25,
        -1.25,
        -0.25
      ],
      "type": "VEC3"
    },
    {
      "bufferView": 1,
      "byteOffset": 32304,
      "componentType": 5126,
      "count": 576,
      "max": [
        1.0,
        1.0,
        0.9999422430992126
      ],
      "min": [
        -1.0,
        -1.0,
        -0.9999422430992126
      ],
      "type": "VEC3"
    },
    {
      "bufferView": 0,
      "byteOffset": 25344,
      "componentType": 5125,
      "count": 3456,
      "type": "SCALAR"
    },
    {
      "bufferView": 1,
      "byteOffset": 39216,
      "componentType": 5126,
      "count": 482,
      "max": [
        1.0,
        1.0,
        1.0
      ],
      "min": [
        -1.0,
        -1.0,
        -1.0
      ],
      "type": "VEC3"
    },
    {
      "bufferView": 1,
      "byteOffset": 45000,
      "componentType": 5126,
      "count": 482,
      "max": [
        1.0,
        1.0,
        1.0
      ],
      "min": [
        -1.0,
        -1.0,
        -1.0
      ],
      "type": "VEC3"
    },
    {
      "bufferView": 0,
      "byteOffset": 39168,
      "componentType": 5125,
      "count": 2880,
      "type": "SCALAR"
    },
    {
      "bufferView": 1,
      "byteOffset": 50784,
      "componentType": 5126,
      "count": 482,
      "max": [
        1.0,
        1.0,
        1.0
      ],
      "min": [
        -1.0,
        -1.0,
        -1.0
      ],
      "type": "VEC3"
    },
    {
      "bufferView": 1,
      "byteOffset": 56568,
      "componentType": 5126,
      "count": 482,
      "max": [
        1.0,
        1.0,
        1.0
      ],
      "min": [
        -1.0,
        -1.0,
        -1.0
      ],
      "type": "VEC3"
    },
    {
      "bufferView": 0,
      "byteOffset": 50688,
      "componentType": 5125,
      "count": 2880,
      "type": "SCALAR"
    },
    {
      "bufferView": 1,
      "byteOffset": 62352,
      "componentType": 5126,
      "count": 1028,
      "max": [
        2.522860050201416,
        3.1858599185943604,
        2.6847000122070313
      ],
      "min": [
        -1.0,
        -1.2986500263214111,
        -1.0
      ],
      "type": "VEC3"
    },
    {
      "bufferView": 1,
      "byteOffset": 74688,
      "componentType": 5126,
      "count": 1028,
      "max": [
        0.9999133348464966,
        1.0,
        0.9950764179229736
      ],
      "min": [
        -1.0,
        -0.996958315372467,
        -1.0
      ],
      "type": "VEC3"
    },
    {
      "bufferView": 0,
      "byteOffset": 62208,
      "componentType": 5125,
      "count": 6132,
      "type": "SCALAR"
    }
  ],
  "asset": {
    "extras": {
      "author": "Frank Murphy (https://sketchfab.com/KaboomAnimations)",
      "license": "CC-BY-4.0 (http://creativecommons.org/licenses/by/4.0/)",
      "source": "https://sketchfab.com/3d-models/mario-fire-flower-0055b438b52e4bab97ebc40c41b63654",
      "title": "Mario Fire Flower"
    },
    "generator": "Sketchfab-12.68.0",
    "version": "2.0"
  },
  "bufferViews": [
    {
      "buffer": 0,
      "byteLength": 86736,
      "name": "floatBufferViews",
      "target": 34963
    },
    {
      "buffer": 0,
      "byteLength": 87024,
      "byteOffset": 86736,
      "byteStride": 12,
      "name": "floatBufferViews",
      "target": 34962
    }
  ],
  "buffers": [
    {
      "byteLength": 173760,
      "uri": "scene.bin"
    }
  ],
  "materials": [
    {
      "doubleSided": true,
      "name": "Material.006",
      "pbrMetallicRoughness": {
        "baseColorFactor": [
          0.0742883384,
          0.8000000715,
          0.1136301607,
          1.0
        ],
        "metallicFactor": 0.0,
        "roughnessFactor": 0.6
      }
    },
    {
      "doubleSided": true,
      "name": "Material.001",
      "pbrMetallicRoughness": {
        "baseColorFactor": [
          0.0,
          0.0,
          0.0,
          1.0
        ],
        "metallicFactor": 0.0,
        "roughnessFactor": 0.6
      }
    },
    {
      "doubleSided": true,
      "name": "Material.004",
      "pbrMetallicRoughness": {
        "baseColorFactor": [
          0.8000000715,
          0.0058700317,
          0.0017682326,
          1.0
        ],
        "metallicFactor": 0.0,
        "roughnessFactor": 0.6
      }
    },
    {
      "doubleSided": true,
      "name": "Material.003",
      "pbrMetallicRoughness": {
        "baseColorFactor": [
          1.0,
          1.0,
          0.0,
          1.0
        ],
        "metallicFactor": 0.0,
        "roughnessFactor": 0.6
      }
    },
    {
      "doubleSided": true,
      "name": "Material.002",
      "pbrMetallicRoughness": {
        "metallicFactor": 0.0,
        "roughnessFactor": 0.6
      }
    }
  ],
  "meshes": [
    {
      "name": "Sphere_0",
      "primitives": [
        {
          "attributes": {
            "NORMAL": 1,
            "POSITION": 0
          },
          "indices": 2,
          "material": 4,
          "mode": 4
        }
      ]
    },
    {
      "name": "Torus_0",
      "primitives": [
        {
          "attributes": {
            "NORMAL": 4,
            "POSITION": 3
          },
          "indices": 5,
          "material": 3,
          "mode": 4
        }
      ]
    },
    {
      "name": "Torus.001_0",
      "primitives": [
        {
          "attributes": {
            "NORMAL": 7,
            "POSITION": 6
          },
          "indices": 8,
          "material": 2,
          "mode": 4
        }
      ]
    },
    {
      "name": "Sphere.001_0",
      "primitives": [
        {
          "attributes": {
            "NORMAL": 10,
            "POSITION": 9
          },
          "indices": 11,
          "material": 1,
          "mode": 4
        }
      ]
    },
    {
      "name": "Sphere.002_0",
      "primitives": [
        {
          "attributes": {
            "NORMAL": 13,
            "POSITION": 12
          },
          "indices": 14,
          "material": 1,
          "mode": 4
        }
      ]
    },
    {
      "name": "Sphere.004_0",
      "primitives": [
        {
          "attributes": {
            "NORMAL": 16,
            "POSITION": 15
          },
          "indices": 17,
          "material": 0,
          "mode": 4
        }
      ]
    }
  ],
  "nodes": [
    {
      "children": [
        1
      ],
      "matrix": [
        1.0,
        0.0,
        0.0,
        0.0,
        0.0,
        2.220446049250313e-16,
        -1.0,
        0.0,
        0.0,
        1.0,
        2.220446049250313e-16,
        0.0,
        0.0,
        0.0,
        0.0,
        1.0
      ],
      "name": "Sketchfab_model"
    },
    {
      "children": [
        2,
        4,
        6,
        8,
        10,
        12,
        14
      ],
      "name": "Root"
    },
    {
      "children": [
        3
      ],
      "matrix": [
        -0.29086000000000006,
        0.9551700000000001,
        -0.05519000000000001,
        0.0,
        -0.7711,
        -0.19988000000000003,
        0.6045200000000001,
        0.0,
        0.5663900000000001,
        0.21839000000000003,
        0.7946700000000001,
        0.0,
        4.076250000000001,
        1.00545,
        5.903860000000001,
        1.0
      ],
      "name": "Lamp"
    },
    {
      "name": "Lamp"
    },
    {
      "children": [
        5
      ],
      "matrix": [
        0.5578200000000001,
        0.0,
        0.0,
        0.0,
        0.0,
        1.58212,
        0.0,
        0.0,
        0.0,
        0.0,
        1.31568,
        0.0,
        -0.3430200000000001,
        0.16529000000000005,
        0.45021,
        1.0
      ],
      "name": "Sphere"
    },
    {
      "mesh": 0,
      "name": "Sphere_0"
    },
    {
      "children": [
        7
      ],
      "matrix": [
        0.028000000000000004,
        -1.4983899999999999,
        0.4448000000000001,
        0.0,
        -0.14763,
        0.4304800000000001,
        1.4594399999999998,
        0.0,
        -1.57795,
        -0.07068,
        -0.13877,
        0.0,
        -0.47917000000000004,
        0.16529000000000005,
        0.40846000000000005,
        1.0
      ],
      "name": "Torus"
    },
    {
      "mesh": 1,
      "name": "Torus_0"
    },
    {
      "children": [
        9
      ],
      "matrix": [
        0.040260000000000004,
        -2.15466,
        0.6396200000000002,
        0.0,
        -0.21302000000000001,
        0.62116,
        2.10588,
        0.0,
        -3.00862,
        -0.13476000000000002,
        -0.26459,
        0.0,
        -0.44101000000000007,
        0.20457,
        0.45041000000000003,
        1.0
      ],
      "name": "Torus.001"
    },
    {
      "mesh": 2,
      "name": "Torus.001_0"
    },
    {
      "children": [
        11
      ],
      "matrix": [
        0.39025000000000004,
        0.0,
        0.0,
        0.0,
        0.0,
        0.2796,
        0.0,
        0.0,
        0.0,
        0.0,
        0.55781,
        0.0,
        0.07928000000000002,
        0.6347200000000002,
        0.6026100000000001,
        1.0
      ],
      "name": "Sphere.001"
    },
    {
      "mesh": 3,
      "name": "Sphere.001_0"
    },
    {
      "children": [
        13
      ],
      "matrix": [
        0.39025000000000004,
        0.0,
        0.0,
        0.0,
        0.0,
        0.2796,
        0.0,
        0.0,
        0.0,
        0.0,
        0.55781,
        0.0,
        0.07928000000000002,
        -0.26144,
        0.6026100000000001,
        1.0
      ],
      "name": "Sphere.002"
    },
    {
      "mesh": 4,
      "name": "Sphere.002_0"
    },
    {
      "children": [
        15
      ],
      "matrix": [
        -0.41306000000000004,
        -0.09859000000000004,
        0.52995,
        0.0,
        -0.14144000000000004,
        -0.8620500000000001,
        -0.27061,
        0.0,
        0.52871,
        -0.20419,
        0.37411000000000005,
        0.0,
        -0.6094200000000001,
        1.3204,
        -2.99755,
        1.0
      ],
      "name": "Sphere.004"
    },
    {
      "mesh": 5,
      "name": "Sphere.004_0"
    }
  ],
  "scene": 0,
  "scenes": [
    {
      "name": "Sketchfab_Scene",
      "nodes": [
        0
      ]
    }
  ]
}
